<svg xmlns="http://www.w3.org/2000/svg" viewBox="0 0 600 400" fill="none">
  <rect width="600" height="400" rx="12" fill="#0f172a"/>
  <rect x="40" y="30" width="220" height="340" rx="10" fill="#1e293b"/>
  <rect x="55" y="50" width="190" height="30" rx="6" fill="#334155"/>
  <rect x="65" y="58" width="100" height="14" rx="3" fill="#38bdf8" opacity="0.5"/>
  <rect x="55" y="95" width="190" height="40" rx="8" fill="#0f172a"/>
  <rect x="70" y="105" width="140" height="8" rx="2" fill="#475569"/>
  <rect x="70" y="118" width="100" height="6" rx="2" fill="#334155"/>
  <rect x="55" y="145" width="190" height="40" rx="8" fill="#0f172a"/>
  <rect x="70" y="155" width="120" height="8" rx="2" fill="#475569"/>
  <rect x="70" y="168" width="90" height="6" rx="2" fill="#334155"/>
  <rect x="55" y="195" width="190" height="40" rx="8" fill="#0f172a"/>
  <rect x="70" y="205" width="150" height="8" rx="2" fill="#475569"/>
  <rect x="70" y="218" width="110" height="6" rx="2" fill="#334155"/>
  <rect x="55" y="310" width="190" height="40" rx="20" fill="#3b82f6"/>
  <rect x="100" y="323" width="100" height="14" rx="3" fill="white" opacity="0.9"/>
  <rect x="340" y="30" width="220" height="340" rx="10" fill="#1e293b"/>
  <rect x="355" y="50" width="190" height="30" rx="6" fill="#3b82f6" opacity="0.3"/>
  <rect x="365" y="58" width="80" height="14" rx="3" fill="white" opacity="0.7"/>
  <rect x="355" y="95" width="190" height="50" rx="8" fill="#0f172a"/>
  <rect x="370" y="105" width="160" height="8" rx="2" fill="#475569"/>
  <rect x="370" y="118" width="140" height="8" rx="2" fill="#475569"/>
  <rect x="370" y="131" width="80" height="6" rx="2" fill="#38bdf8" opacity="0.4"/>
  <rect x="355" y="160" width="190" height="50" rx="8" fill="#0f172a"/>
  <rect x="480" y="170" width="50" height="8" rx="2" fill="#475569"/>
  <rect x="370" y="176" width="160" height="8" rx="2" fill="#475569"/>
  <rect x="370" y="189" width="100" height="6" rx="2" fill="#38bdf8" opacity="0.4"/>
  <circle cx="375" cy="174" r="12" fill="#3b82f6" opacity="0.3"/>
  <circle cx="375" cy="112" r="12" fill="#38bdf8" opacity="0.3"/>
</svg>
